<svg width="53.813110" height="37.658691" viewBox="0 0 53.8131 37.6587" fill="none" xmlns="http://www.w3.org/2000/svg" xmlns:xlink="http://www.w3.org/1999/xlink">
	<desc>
			Created with Pixso.
	</desc>
	<defs/>
	<path id="10" d="M53.81 18.71C53.8 30.7 48.28 37.65 39.12 37.65C29.97 37.64 24.41 30.66 24.45 18.71C24.46 6.79 30 0 39.12 0C48.24 0 53.83 6.82 53.81 18.71ZM8.99 0.5L16.22 0.5L16.22 36.86L8.54 36.86L8.54 7.8L8.32 7.8L0 13.02L0 6.2L8.99 0.5ZM32.27 18.71C32.26 27.09 34.96 31.28 39.12 31.28C43.29 31.28 45.98 27.09 45.96 18.71C45.96 10.46 43.26 6.31 39.12 6.31C34.97 6.31 32.29 10.46 32.27 18.71Z" fill="#CA2020" fill-opacity="1.000000" fill-rule="evenodd"/>
</svg>
