<svg width="122.634033" height="37.658691" viewBox="0 0 122.634 37.6587" fill="none" xmlns="http://www.w3.org/2000/svg" xmlns:xlink="http://www.w3.org/1999/xlink">
	<desc>
			Created with Pixso.
	</desc>
	<defs/>
	<path id="1000" d="M53.81 18.71C53.8 30.7 48.28 37.65 39.12 37.65C29.97 37.64 24.41 30.66 24.45 18.71C24.46 6.79 30 0 39.12 0C48.24 0 53.83 6.82 53.81 18.71ZM88.22 18.71C88.21 30.7 82.69 37.65 73.53 37.65C64.38 37.64 58.82 30.66 58.86 18.71C58.87 6.79 64.41 0 73.53 0C82.65 0 88.24 6.82 88.22 18.71ZM122.63 18.71C122.62 30.7 117.1 37.65 107.94 37.65C98.79 37.64 93.23 30.66 93.27 18.71C93.28 6.79 98.83 0 107.94 0C117.06 0 122.65 6.82 122.63 18.71ZM8.99 0.5L16.22 0.5L16.22 36.86L8.54 36.86L8.54 7.8L8.32 7.8L0 13.02L0 6.2L8.99 0.5ZM32.27 18.71C32.26 27.09 34.96 31.28 39.12 31.28C43.29 31.28 45.98 27.09 45.96 18.71C45.96 10.46 43.26 6.31 39.12 6.31C34.97 6.31 32.29 10.46 32.27 18.71ZM66.69 18.71C66.67 27.09 69.37 31.28 73.53 31.28C77.7 31.28 80.39 27.09 80.37 18.71C80.37 10.46 77.67 6.31 73.53 6.31C69.38 6.31 66.7 10.46 66.69 18.71ZM101.1 18.71C101.08 27.09 103.78 31.28 107.94 31.28C112.11 31.28 114.8 27.09 114.78 18.71C114.78 10.46 112.08 6.31 107.94 6.31C103.79 6.31 101.11 10.46 101.1 18.71Z" fill="#CA2020" fill-opacity="1.000000" fill-rule="evenodd"/>
</svg>
