<svg width="40.000000" height="40.000000" viewBox="0 0 40 40" fill="none" xmlns="http://www.w3.org/2000/svg" xmlns:xlink="http://www.w3.org/1999/xlink">
	<desc>
			Created with Pixso.
	</desc>
	<defs/>
	<path id="Vector" d="M40 0L0 0L0 40L40 40L40 0ZM12.57 11.28C12.23 10.9 11.65 10.87 11.27 11.22C10.9 11.56 10.87 12.15 11.22 12.53L18.36 20.39L11.22 28.25C10.87 28.62 10.9 29.21 11.27 29.56C11.65 29.9 12.23 29.88 12.57 29.5L19.6 21.76L26.64 29.5C26.98 29.88 27.56 29.9 27.93 29.56C28.31 29.21 28.33 28.62 27.99 28.25L20.85 20.39L27.99 12.53C28.33 12.15 28.31 11.56 27.93 11.22C27.56 10.87 26.98 10.9 26.64 11.28L19.6 19.02L12.57 11.28Z" fill="#DDDDDD" fill-opacity="0" fill-rule="evenodd"/>
	<path id="Vector" d="M11.27 11.22C11.65 10.87 12.23 10.9 12.57 11.28L19.6 19.02L26.64 11.28C26.98 10.9 27.56 10.87 27.93 11.22C28.31 11.56 28.33 12.15 27.99 12.53L20.85 20.39L27.99 28.25C28.33 28.62 28.31 29.21 27.93 29.56C27.56 29.9 26.98 29.88 26.64 29.5L19.6 21.76L12.57 29.5C12.23 29.88 11.65 29.9 11.27 29.56C10.9 29.21 10.87 28.62 11.22 28.25L18.36 20.39L11.22 12.53C10.87 12.15 10.9 11.56 11.27 11.22Z" fill="#5D5D5D" fill-opacity="0.700000" fill-rule="nonzero"/>
</svg>
