<svg width="168.153809" height="42.000000" viewBox="0 0 168.154 42" fill="none" xmlns="http://www.w3.org/2000/svg" xmlns:xlink="http://www.w3.org/1999/xlink">
	<desc>
			Created with Pixso.
	</desc>
	<defs/>
	<path d="M56.41 38.55C56.41 38.94 56.29 39.29 56.07 39.58C55.85 39.88 55.54 40.11 55.16 40.28C54.79 40.44 54.37 40.52 53.91 40.52L49.88 40.52L49.88 32.85L54.11 32.85C54.51 32.85 54.85 32.95 55.14 33.14C55.43 33.33 55.66 33.57 55.81 33.88C55.97 34.17 56.05 34.48 56.05 34.81C56.05 35.18 55.94 35.53 55.72 35.86C55.52 36.19 55.22 36.43 54.83 36.59C55.31 36.72 55.7 36.96 55.98 37.31C56.26 37.66 56.41 38.07 56.41 38.55ZM55.32 38.37C55.32 38.14 55.26 37.92 55.14 37.71C55.02 37.51 54.87 37.35 54.67 37.23C54.48 37.1 54.25 37.04 54 37.04L50.96 37.04L50.96 39.68L53.91 39.68C54.18 39.68 54.41 39.62 54.62 39.5C54.84 39.38 55 39.22 55.12 39.02C55.25 38.82 55.32 38.6 55.32 38.37ZM50.96 33.69L50.96 36.25L53.66 36.25C53.92 36.25 54.14 36.2 54.33 36.08C54.53 35.97 54.69 35.81 54.8 35.62C54.92 35.42 54.98 35.21 54.98 34.98C54.98 34.73 54.93 34.52 54.81 34.33C54.71 34.14 54.56 33.98 54.37 33.86C54.19 33.75 53.98 33.69 53.74 33.69L50.96 33.69Z" fill="#30373D" fill-opacity="1.000000" fill-rule="nonzero"/>
	<path d="M57.91 40.52L57.91 32.85L58.99 32.85L58.99 35.76L61.03 35.76C61.65 35.76 62.17 35.86 62.58 36.06C63 36.25 63.31 36.53 63.52 36.89C63.73 37.25 63.84 37.66 63.84 38.14C63.84 38.58 63.74 38.99 63.53 39.36C63.32 39.72 63.01 40 62.61 40.21C62.2 40.42 61.7 40.52 61.1 40.52L57.91 40.52ZM58.99 39.71L60.96 39.71C61.38 39.71 61.72 39.64 61.98 39.5C62.25 39.35 62.44 39.15 62.56 38.91C62.68 38.67 62.74 38.41 62.74 38.14C62.74 37.86 62.68 37.61 62.57 37.37C62.47 37.13 62.28 36.94 62.02 36.79C61.76 36.64 61.4 36.57 60.94 36.57L58.99 36.57L58.99 39.71ZM65.25 40.52L65.25 32.86L66.33 32.86L66.33 40.52L65.25 40.52Z" fill="#30373D" fill-opacity="1.000000" fill-rule="nonzero"/>
	<path d="M74.14 39.66L74.14 40.52L68.37 40.52L68.37 32.85L74.03 32.85L74.03 33.71L69.45 33.71L69.45 36.2L73.43 36.2L73.43 37.01L69.45 37.01L69.45 39.66L74.14 39.66Z" fill="#30373D" fill-opacity="1.000000" fill-rule="nonzero"/>
	<path d="M77.95 40.61C77.34 40.61 76.78 40.5 76.29 40.27C75.8 40.03 75.42 39.7 75.14 39.28L75.97 38.83C76.16 39.13 76.43 39.37 76.77 39.54C77.1 39.71 77.49 39.79 77.93 39.79C78.51 39.79 78.96 39.66 79.28 39.4C79.61 39.14 79.77 38.79 79.77 38.36C79.77 38.09 79.71 37.85 79.57 37.64C79.43 37.42 79.24 37.26 78.98 37.14C78.73 37.02 78.42 36.96 78.05 36.96L77.17 36.96L77.17 36.19L78.06 36.19C78.35 36.19 78.6 36.14 78.8 36.03C79.02 35.91 79.18 35.76 79.29 35.57C79.41 35.38 79.47 35.16 79.47 34.92C79.47 34.67 79.41 34.45 79.28 34.26C79.15 34.07 78.97 33.92 78.73 33.81C78.5 33.7 78.22 33.65 77.89 33.65C77.48 33.65 77.12 33.73 76.8 33.9C76.49 34.06 76.25 34.28 76.07 34.56L75.28 34.07C75.55 33.67 75.91 33.35 76.35 33.12C76.79 32.88 77.32 32.76 77.94 32.76C78.46 32.76 78.91 32.84 79.29 33.01C79.68 33.18 79.98 33.41 80.19 33.71C80.41 34.02 80.52 34.38 80.52 34.79C80.52 35.17 80.41 35.52 80.2 35.83C80 36.14 79.71 36.38 79.31 36.54C79.8 36.66 80.18 36.89 80.46 37.24C80.73 37.58 80.86 37.99 80.86 38.45C80.86 38.9 80.74 39.29 80.48 39.62C80.23 39.94 79.89 40.19 79.45 40.36C79.02 40.53 78.52 40.61 77.95 40.61Z" fill="#30373D" fill-opacity="1.000000" fill-rule="nonzero"/>
	<path d="M81.59 42L81.59 39.66L81.97 39.66C82.2 39.66 82.39 39.58 82.56 39.42C82.73 39.26 82.87 39 82.99 38.64C83.11 38.28 83.21 37.8 83.28 37.21C83.35 36.61 83.4 35.87 83.44 34.99L83.5 32.85L88.76 32.85L88.76 39.66L89.82 39.66L89.82 42L88.86 42L88.86 40.52L82.55 40.52L82.55 42L81.59 42ZM83.41 39.66L87.69 39.66L87.69 33.71L84.49 33.71L84.45 35.11C84.43 36.02 84.38 36.78 84.3 37.39C84.22 38 84.11 38.49 83.96 38.86C83.82 39.23 83.64 39.49 83.41 39.66Z" fill="#30373D" fill-opacity="1.000000" fill-rule="nonzero"/>
	<path d="M98.09 32.85L98.09 40.52L97.01 40.52L97.01 37.03L92.33 37.03L92.33 40.52L91.25 40.52L91.25 32.85L92.33 32.85L92.33 36.17L97.01 36.17L97.01 32.85L98.09 32.85Z" fill="#30373D" fill-opacity="1.000000" fill-rule="nonzero"/>
	<path d="M103.58 40.58C102.98 40.58 102.44 40.47 101.95 40.25C101.46 40.04 101.04 39.75 100.68 39.38C100.33 39 100.06 38.59 99.87 38.12C99.67 37.66 99.58 37.18 99.58 36.69C99.58 36.17 99.68 35.69 99.88 35.23C100.09 34.76 100.37 34.34 100.73 33.98C101.1 33.62 101.52 33.33 102.01 33.12C102.5 32.9 103.03 32.79 103.6 32.79C104.2 32.79 104.74 32.91 105.23 33.13C105.72 33.35 106.14 33.65 106.49 34.03C106.84 34.4 107.11 34.82 107.3 35.28C107.49 35.74 107.59 36.21 107.59 36.7C107.59 37.21 107.49 37.7 107.29 38.17C107.09 38.63 106.81 39.04 106.44 39.41C106.08 39.77 105.66 40.06 105.17 40.27C104.68 40.47 104.15 40.58 103.58 40.58ZM100.67 36.69C100.67 37.08 100.74 37.45 100.87 37.82C101.02 38.18 101.22 38.5 101.47 38.78C101.73 39.07 102.03 39.29 102.39 39.45C102.75 39.62 103.15 39.7 103.59 39.7C104.04 39.7 104.45 39.62 104.81 39.44C105.17 39.27 105.47 39.04 105.72 38.75C105.98 38.46 106.17 38.14 106.3 37.78C106.43 37.42 106.5 37.05 106.5 36.69C106.5 36.3 106.43 35.92 106.28 35.56C106.15 35.2 105.95 34.88 105.69 34.6C105.43 34.31 105.12 34.09 104.76 33.93C104.41 33.76 104.02 33.68 103.59 33.68C103.14 33.68 102.73 33.77 102.37 33.94C102.01 34.11 101.7 34.33 101.45 34.62C101.2 34.91 101.01 35.23 100.87 35.59C100.74 35.95 100.67 36.31 100.67 36.69Z" fill="#30373D" fill-opacity="1.000000" fill-rule="nonzero"/>
	<path d="M109.15 40.52L109.15 32.85L110.22 32.85L110.22 39.17L115.15 32.85L116.15 32.85L116.15 40.52L115.07 40.52L115.07 34.32L110.21 40.52L109.15 40.52ZM112.66 32.28C112.24 32.28 111.89 32.22 111.6 32.1C111.31 31.99 111.1 31.83 110.95 31.63C110.81 31.42 110.74 31.2 110.74 30.96L111.57 30.96C111.57 31.14 111.64 31.32 111.79 31.48C111.95 31.63 112.24 31.7 112.66 31.7C113.05 31.7 113.33 31.63 113.49 31.5C113.65 31.35 113.73 31.17 113.73 30.96L114.56 30.96C114.56 31.2 114.49 31.42 114.34 31.63C114.2 31.83 113.99 31.99 113.71 32.1C113.43 32.22 113.08 32.28 112.66 32.28Z" fill="#30373D" fill-opacity="1.000000" fill-rule="nonzero"/>
	<path d="M120.72 36.63C120.72 36.16 120.81 35.71 120.98 35.26C121.17 34.81 121.43 34.39 121.77 34.03C122.13 33.65 122.55 33.36 123.06 33.14C123.56 32.92 124.13 32.81 124.77 32.81C125.53 32.81 126.18 32.96 126.72 33.28C127.26 33.59 127.67 33.99 127.93 34.48L127.08 34.98C126.91 34.65 126.7 34.4 126.43 34.21C126.18 34.02 125.9 33.88 125.6 33.8C125.3 33.72 125.01 33.68 124.72 33.68C124.25 33.68 123.83 33.77 123.46 33.94C123.1 34.11 122.8 34.34 122.55 34.63C122.31 34.92 122.12 35.25 121.99 35.61C121.87 35.96 121.81 36.32 121.81 36.68C121.81 37.07 121.88 37.45 122.03 37.82C122.18 38.19 122.39 38.51 122.65 38.79C122.91 39.08 123.22 39.3 123.58 39.47C123.94 39.63 124.33 39.71 124.76 39.71C125.05 39.71 125.36 39.67 125.67 39.57C125.98 39.48 126.27 39.34 126.54 39.14C126.81 38.94 127.03 38.68 127.19 38.36L128.09 38.81C127.91 39.19 127.64 39.51 127.27 39.78C126.9 40.05 126.49 40.25 126.04 40.38C125.59 40.52 125.15 40.59 124.71 40.59C124.13 40.59 123.59 40.48 123.1 40.25C122.62 40.02 122.19 39.72 121.83 39.35C121.48 38.96 121.21 38.54 121.01 38.07C120.82 37.59 120.72 37.12 120.72 36.63Z" fill="#30373D" fill-opacity="1.000000" fill-rule="nonzero"/>
	<path d="M135.21 39.66L135.21 40.52L129.43 40.52L129.43 32.85L135.1 32.85L135.1 33.71L130.51 33.71L130.51 36.2L134.5 36.2L134.5 37.01L130.51 37.01L130.51 39.66L135.21 39.66Z" fill="#30373D" fill-opacity="1.000000" fill-rule="nonzero"/>
	<path d="M136.68 40.52L136.68 32.85L140.23 32.85C140.6 32.85 140.95 32.92 141.26 33.06C141.57 33.2 141.84 33.39 142.07 33.63C142.31 33.86 142.48 34.12 142.61 34.42C142.74 34.7 142.8 35 142.8 35.3C142.8 35.72 142.7 36.12 142.49 36.5C142.28 36.88 141.99 37.18 141.62 37.42C141.24 37.65 140.8 37.77 140.3 37.77L137.76 37.77L137.76 40.52L136.68 40.52ZM137.76 36.9L140.24 36.9C140.54 36.9 140.79 36.83 141.01 36.69C141.23 36.54 141.4 36.35 141.52 36.1C141.65 35.86 141.71 35.59 141.71 35.3C141.71 35 141.64 34.73 141.5 34.49C141.35 34.25 141.17 34.06 140.94 33.92C140.7 33.78 140.45 33.71 140.17 33.71L137.76 33.71L137.76 36.9Z" fill="#30373D" fill-opacity="1.000000" fill-rule="nonzero"/>
	<path d="M150.67 38.55C150.67 38.94 150.56 39.29 150.34 39.58C150.11 39.88 149.81 40.11 149.43 40.28C149.05 40.44 148.64 40.52 148.18 40.52L144.14 40.52L144.14 32.85L148.37 32.85C148.77 32.85 149.12 32.95 149.4 33.14C149.7 33.33 149.92 33.57 150.07 33.88C150.23 34.17 150.31 34.48 150.31 34.81C150.31 35.18 150.2 35.53 149.99 35.86C149.78 36.19 149.48 36.43 149.09 36.59C149.58 36.72 149.96 36.96 150.24 37.31C150.53 37.66 150.67 38.07 150.67 38.55ZM149.58 38.37C149.58 38.14 149.52 37.92 149.4 37.71C149.29 37.51 149.14 37.35 148.94 37.23C148.74 37.1 148.52 37.04 148.27 37.04L145.22 37.04L145.22 39.68L148.18 39.68C148.44 39.68 148.68 39.62 148.89 39.5C149.1 39.38 149.27 39.22 149.39 39.02C149.52 38.82 149.58 38.6 149.58 38.37ZM145.22 33.69L145.22 36.25L147.93 36.25C148.18 36.25 148.41 36.2 148.6 36.08C148.8 35.97 148.96 35.81 149.07 35.62C149.19 35.42 149.25 35.21 149.25 34.98C149.25 34.73 149.19 34.52 149.08 34.33C148.98 34.14 148.83 33.98 148.64 33.86C148.45 33.75 148.24 33.69 148 33.69L145.22 33.69Z" fill="#30373D" fill-opacity="1.000000" fill-rule="nonzero"/>
	<path d="M152.24 40.52L152.24 32.85L153.32 32.85L153.32 39.17L158.24 32.85L159.24 32.85L159.24 40.52L158.17 40.52L158.17 34.32L153.31 40.52L152.24 40.52Z" fill="#30373D" fill-opacity="1.000000" fill-rule="nonzero"/>
	<path d="M160.78 36.63C160.78 36.16 160.87 35.71 161.05 35.26C161.23 34.81 161.5 34.39 161.84 34.03C162.19 33.65 162.62 33.36 163.12 33.14C163.62 32.92 164.19 32.81 164.83 32.81C165.59 32.81 166.24 32.96 166.78 33.28C167.33 33.59 167.73 33.99 167.99 34.48L167.14 34.98C166.98 34.65 166.76 34.4 166.5 34.21C166.24 34.02 165.96 33.88 165.66 33.8C165.36 33.72 165.07 33.68 164.78 33.68C164.31 33.68 163.89 33.77 163.53 33.94C163.17 34.11 162.86 34.34 162.62 34.63C162.37 34.92 162.18 35.25 162.05 35.61C161.93 35.96 161.87 36.32 161.87 36.68C161.87 37.07 161.95 37.45 162.09 37.82C162.24 38.19 162.45 38.51 162.71 38.79C162.98 39.08 163.29 39.3 163.65 39.47C164.01 39.63 164.4 39.71 164.82 39.71C165.12 39.71 165.42 39.67 165.73 39.57C166.04 39.48 166.33 39.34 166.6 39.14C166.88 38.94 167.09 38.68 167.25 38.36L168.15 38.81C167.97 39.19 167.7 39.51 167.34 39.78C166.97 40.05 166.56 40.25 166.1 40.38C165.65 40.52 165.21 40.59 164.77 40.59C164.19 40.59 163.65 40.48 163.17 40.25C162.68 40.02 162.26 39.72 161.9 39.35C161.55 38.96 161.27 38.54 161.07 38.07C160.88 37.59 160.78 37.12 160.78 36.63Z" fill="#30373D" fill-opacity="1.000000" fill-rule="nonzero"/>
	<path d="M40.98 20.5C40.98 31.82 31.8 41 20.48 41C10.17 41 1.38 32.24 0 23.62L7.03 25.63C8.46 30.17 12.14 33.28 17.37 34.44C17.37 34.44 16.13 27.25 13.02 24.22C11.58 22.82 9.35 21.95 7.14 21.4L0.01 19.36C0.13 17.05 0.64 14.84 1.47 12.79C4.52 5.29 11.88 0 20.48 0C27.81 0 33.98 3.31 37.3 8.91L30.89 10.71C28.28 7.94 24.58 6.21 20.48 6.21C14.61 6.21 9.57 9.74 7.37 14.8C7.37 14.8 15.07 17 20.48 17C25.88 17 39.48 12.79 39.48 12.79C40.3 14.81 40.8 16.98 40.94 19.25C40.96 19.66 40.98 20.08 40.98 20.5ZM27.93 24.22C24.55 26.94 23.58 34.44 23.58 34.44C29.62 33.11 34.22 27.94 34.72 21.63C34.72 21.63 30.14 22.44 27.93 24.22Z" fill="#CA2020" fill-opacity="1.000000" fill-rule="evenodd"/>
	<path d="M60.11 1.27L61.26 1.27L71.55 25.14L68.52 25.14L65.24 17.67L56.13 17.67L52.92 25.14L49.88 25.14L60.11 1.27ZM61.15 7.93L60.87 7.05L60.66 6.27L60.42 7.02L60.14 7.93L57.21 15.17L64.12 15.17L61.15 7.93Z" fill="#30373D" fill-opacity="1.000000" fill-rule="nonzero"/>
	<path d="M76.85 25.68C76.2 25.68 75.57 25.54 74.96 25.25C74.36 24.97 73.87 24.6 73.5 24.13L75.56 22.51C75.84 22.87 76.24 23.05 76.78 23.05C77.31 23.05 77.7 22.87 77.93 22.51C78.19 22.12 78.42 21.54 78.63 20.75C79 19.26 79.28 17.22 79.47 14.63C79.72 11.15 79.85 6.94 79.85 1.98L94.44 1.98L94.44 25.14L91.58 25.14L91.58 4.55L82.5 4.55C82.48 7.3 82.39 10.16 82.22 13.14C82.06 16.11 81.8 18.57 81.45 20.51C81.15 22.29 80.57 23.6 79.71 24.43C78.87 25.27 77.92 25.68 76.85 25.68Z" fill="#30373D" fill-opacity="1.000000" fill-rule="nonzero"/>
	<path d="M108.32 11.55C109.83 11.55 111.23 11.85 112.51 12.46C113.79 13.05 114.8 13.88 115.54 14.96C116.31 16.02 116.69 17.25 116.69 18.65C116.69 20.07 116.28 21.37 115.44 22.54C114.6 23.69 113.41 24.5 111.88 24.97C110.88 25.29 109.52 25.45 107.79 25.45C105.84 25.45 104.35 25.39 103.33 25.28L101.2 25.04L101.2 2.01L104.06 2.01L104.06 11.55L108.32 11.55ZM108.14 22.88C109.93 22.88 111.33 22.52 112.33 21.8C113.33 21.07 113.83 20.03 113.83 18.65C113.83 17.32 113.38 16.24 112.47 15.4C111.56 14.55 110.27 14.12 108.6 14.12L104.06 14.12L104.06 22.71L105.87 22.81C106.76 22.85 107.52 22.88 108.14 22.88Z" fill="#30373D" fill-opacity="1.000000" fill-rule="nonzero"/>
	<path d="M131 24.16C128.63 23.98 126.61 23.38 124.93 22.37C123.28 21.33 122.02 20.04 121.16 18.48C120.32 16.92 119.9 15.29 119.9 13.58C119.9 11.86 120.32 10.24 121.16 8.71C122.02 7.15 123.28 5.87 124.93 4.85C126.61 3.81 128.63 3.2 131 3.02L131 1L133.66 1L133.66 3.02C136.03 3.2 138.05 3.81 139.73 4.85C141.4 5.87 142.66 7.15 143.5 8.71C144.36 10.24 144.79 11.86 144.79 13.58C144.79 15.29 144.36 16.92 143.5 18.48C142.66 20.04 141.4 21.33 139.73 22.37C138.05 23.38 136.03 23.98 133.66 24.16L133.66 26.23L131 26.23L131 24.16ZM131 5.63C129.21 5.79 127.68 6.26 126.4 7.05C125.12 7.82 124.15 8.77 123.5 9.92C122.87 11.07 122.56 12.29 122.56 13.58C122.56 14.86 122.87 16.08 123.5 17.23C124.15 18.38 125.12 19.35 126.4 20.14C127.68 20.9 129.21 21.38 131 21.56L131 5.63ZM133.66 21.56C135.47 21.38 137.02 20.9 138.3 20.14C139.58 19.35 140.53 18.38 141.16 17.23C141.81 16.08 142.14 14.86 142.14 13.58C142.14 12.29 141.81 11.07 141.16 9.92C140.53 8.77 139.58 7.82 138.3 7.05C137.02 6.26 135.47 5.79 133.66 5.63L133.66 21.56Z" fill="#30373D" fill-opacity="1.000000" fill-rule="nonzero"/>
	<path d="M156.7 1.27L157.85 1.27L168.15 25.14L165.11 25.14L161.83 17.67L152.72 17.67L149.51 25.14L146.47 25.14L156.7 1.27ZM157.75 7.93L157.47 7.05L157.26 6.27L157.02 7.02L156.74 7.93L153.8 15.17L160.72 15.17L157.75 7.93Z" fill="#30373D" fill-opacity="1.000000" fill-rule="nonzero"/>
</svg>
