<svg width="26.000000" height="26.000000" viewBox="0 0 26 26" fill="none" xmlns="http://www.w3.org/2000/svg" xmlns:xlink="http://www.w3.org/1999/xlink">
	<desc>
			Created with Pixso.
	</desc>
	<defs/>
	<path id="Exclude" d="M4.77 4.14C7.04 2 9.87 2 10.44 2L16.12 2C16.68 2 18.95 2 21.22 4.14C23.5 6.29 23.5 8.97 23.5 9.51L23.5 13.26C23.5 13.8 23.5 16.21 21.22 18.36C18.95 20.51 16.68 20.78 16.12 20.78L11.2 20.78C11.2 20.78 7.91 24 7.6 24C7.29 24 7.21 23.85 7.14 23.69C7.04 23.47 7.14 20.01 7.14 20.01C6.39 19.65 5.58 19.13 4.77 18.36C2.5 16.21 2.5 13.8 2.5 13.26L2.5 9.51C2.5 8.97 2.5 6.29 4.77 4.14ZM7.1 11.12C6.59 10.16 6.34 8.97 6.53 8.43C6.89 7.37 8.23 6.29 8.8 6.29C9.13 6.29 9.42 6.33 9.65 6.56C10.08 6.97 10.44 7.3 10.75 7.58C11.25 8.04 11.61 8.37 11.92 8.7C12.43 9.24 11.92 9.81 11.64 10.04C11.52 10.14 11.39 10.2 11.26 10.26C11.09 10.33 10.93 10.41 10.79 10.58C10.63 10.77 10.57 10.89 10.5 11.12C10.32 11.7 10.94 12.6 11.64 13.26C12.34 13.93 13.34 14.5 13.91 14.34C14.14 14.27 14.28 14.21 14.48 14.07C14.67 13.93 14.75 13.76 14.84 13.59C14.9 13.48 14.96 13.37 15.04 13.26C15.27 13 15.93 12.49 16.46 13L18.73 15.14C18.87 15.27 18.9 15.62 18.73 15.95C18.45 16.48 17.88 17.02 17.31 17.56C16.53 18.3 15.04 17.82 14.48 17.56C12.55 16.65 11.48 16.02 9.93 14.6C8.63 13.41 7.38 11.65 7.1 11.12ZM13.72 5.54C13.2 5.54 13.2 4.71 13.63 4.71L13.66 4.71C14.17 4.71 16.44 4.71 18.39 6.55C20.37 8.42 20.5 10.38 20.5 11.01C20.5 11.65 19.63 11.62 19.63 11.1C19.63 10.58 19.5 8.59 17.82 7.08C16.14 5.57 14.25 5.54 13.72 5.54ZM13.7 6.5C13.13 6.52 13.18 7.33 13.75 7.3C14.31 7.27 15.45 7.22 16.64 8.23C17.83 9.25 17.89 10.32 17.92 10.85C17.95 11.39 18.8 11.35 18.77 10.81C18.74 10.28 18.56 8.85 17.3 7.65C16.04 6.45 14.27 6.47 13.7 6.5ZM14.33 8.96C13.76 8.97 13.74 8.17 14.31 8.15C14.88 8.14 15.38 8.39 16.03 8.91C16.69 9.44 16.91 9.97 16.93 10.5C16.94 11.04 16.09 11.06 16.08 10.52C16.06 9.99 15.77 9.73 15.48 9.47C15.19 9.2 14.9 8.94 14.33 8.96Z" fill="#B585F3" fill-opacity="1.000000" fill-rule="evenodd"/>
</svg>
