<svg width="34.000000" height="34.000000" viewBox="0 0 34 34" fill="none" xmlns="http://www.w3.org/2000/svg" xmlns:xlink="http://www.w3.org/1999/xlink">
	<desc>
			Created with Pixso.
	</desc>
	<defs/>
	<path id="Exclude" d="M17 32.86C26.38 32.86 34 25.5 34 16.43C34 7.35 26.38 0 17 0C7.61 0 0 7.35 0 16.43C0 20.1 1.24 23.5 3.35 26.23L0 34L8.79 30.82C11.22 32.12 14.02 32.86 17 32.86ZM12.27 5.89C12.85 6.45 13.14 6.85 14.02 8.1C14.9 9.35 14.6 10.31 13.14 11.12C12.97 11.21 12.79 11.28 12.6 11.34C12.15 11.5 11.68 11.67 11.39 12.22C10.97 13.01 13.1 15.89 15.47 18.29C17.79 20.5 20.71 22.16 21.28 22.16C21.95 22.16 22.14 21.65 22.36 21.08C22.51 20.68 22.68 20.25 23.03 19.95C23.64 19.43 24.78 18.85 25.36 19.4C26.14 20.13 26.45 20.43 26.67 20.63C26.94 20.89 27.04 20.99 27.69 21.61C28.41 22.29 28.28 23.26 27.11 24.37C26.03 25.39 25.08 25.82 23.62 26.02C22.3 26.21 20.98 25.7 19.46 25.11C19.3 25.05 19.13 24.98 18.95 24.92C15.49 23.6 13.77 22.12 11.39 19.4C11.3 19.3 11.21 19.2 11.12 19.1C9.13 16.83 7.87 15.4 7.31 12.22C7.29 12.09 7.26 11.95 7.23 11.8C6.98 10.61 6.64 8.99 8.47 7.25C9.06 6.7 11.39 5.06 12.27 5.89Z" fill="#33D657" fill-opacity="1.000000" fill-rule="evenodd"/>
</svg>
