<svg width="48.000000" height="41.000000" viewBox="0 0 48 41" fill="none" xmlns="http://www.w3.org/2000/svg" xmlns:xlink="http://www.w3.org/1999/xlink">
	<desc>
			Created with Pixso.
	</desc>
	<defs/>
	<path id="Vector 16" d="M20.25 37.34C19.5 38.11 18.75 38.11 18 38.11L18.75 26.58C18.75 26.58 39.75 8.25 39.75 7.35C39.75 6.45 38.25 7.35 38.25 7.35L12.75 23.5L1.5 20.42C1.5 20.42 0 19.74 0 18.89C0 18.04 1.5 17.35 1.5 17.35L44.25 0.43C44.25 0.43 46.29 -0.55 47.25 0.43C47.59 0.78 48 1.2 48 1.97C48 1.97 41.25 38.88 39.75 40.42C39 41.19 38.25 41.19 36.75 40.42C35.53 39.79 25.5 31.96 25.5 31.96C25.5 31.96 21 36.57 20.25 37.34Z" fill="#30373D" fill-opacity="1.000000" fill-rule="evenodd"/>
</svg>
