<svg width="46.000000" height="47.000000" viewBox="0 0 46 47" fill="none" xmlns="http://www.w3.org/2000/svg" xmlns:xlink="http://www.w3.org/1999/xlink">
	<desc>
			Created with Pixso.
	</desc>
	<defs/>
	<path id="Exclude" d="M4.97 4.58C9.94 0 16.16 0 17.4 0L29.83 0C31.08 0 36.05 0 41.02 4.58C46 9.17 46 14.9 46 16.04L46 24.07C46 25.21 46 30.37 41.02 34.96C36.05 39.54 31.08 40.12 29.83 40.12L19.06 40.12C19.06 40.12 11.86 47 11.18 47C10.5 47 10.33 46.68 10.17 46.34C9.95 45.87 10.17 38.48 10.17 38.48C8.53 37.72 6.75 36.6 4.97 34.96C0 30.37 0 25.21 0 24.07L0 16.04C0 14.9 0 9.17 4.97 4.58ZM10.08 19.48C8.97 17.44 8.43 14.9 8.83 13.75C9.63 11.49 12.56 9.17 13.8 9.17C14.53 9.17 15.15 9.26 15.67 9.74C16.62 10.61 17.41 11.32 18.08 11.93C19.17 12.91 19.96 13.62 20.64 14.32C21.75 15.47 20.64 16.7 20.02 17.19C19.76 17.4 19.48 17.52 19.2 17.64C18.83 17.81 18.47 17.97 18.16 18.34C17.82 18.73 17.69 19 17.53 19.48C17.13 20.72 18.49 22.65 20.02 24.07C21.56 25.48 23.75 26.7 24.99 26.36C25.51 26.22 25.81 26.1 26.24 25.79C26.65 25.49 26.84 25.13 27.04 24.77C27.16 24.53 27.29 24.29 27.48 24.07C27.97 23.5 29.42 22.42 30.59 23.5L35.56 28.08C35.86 28.36 35.93 29.11 35.56 29.8C34.94 30.95 33.7 32.09 32.45 33.24C30.74 34.82 27.48 33.81 26.24 33.24C22.02 31.3 19.67 29.97 16.29 26.93C13.44 24.37 10.7 20.63 10.08 19.48ZM24.59 7.57C23.44 7.57 23.44 5.8 24.4 5.8L24.46 5.8C25.57 5.8 30.55 5.79 34.81 9.72C39.16 13.73 39.44 17.9 39.44 19.26C39.44 20.62 37.53 20.56 37.53 19.44C37.53 18.33 37.24 14.08 33.56 10.86C29.89 7.64 25.74 7.57 24.59 7.57ZM24.54 9.61C23.3 9.67 23.4 11.39 24.64 11.33C25.88 11.27 28.37 11.15 30.98 13.32C33.59 15.49 33.72 17.78 33.79 18.92C33.85 20.07 35.72 19.98 35.65 18.83C35.59 17.69 35.18 14.64 32.42 12.08C29.67 9.52 25.79 9.55 24.54 9.61ZM25.92 14.87C24.68 14.9 24.63 13.18 25.87 13.15C27.12 13.12 28.22 13.67 29.65 14.78C31.08 15.89 31.58 17.02 31.61 18.17C31.65 19.32 29.78 19.36 29.75 18.22C29.72 17.07 29.08 16.51 28.44 15.95C27.8 15.4 27.16 14.84 25.92 14.87Z" fill="#30373D" fill-opacity="1.000000" fill-rule="evenodd"/>
</svg>
