<svg width="34.000000" height="34.000000" viewBox="0 0 34 34" fill="none" xmlns="http://www.w3.org/2000/svg" xmlns:xlink="http://www.w3.org/1999/xlink">
	<desc>
			Created with Pixso.
	</desc>
	<defs/>
	<path id="Exclude" d="M3.67 3.31C7.35 0 11.94 0 12.86 0L22.05 0C22.97 0 26.64 0 30.32 3.31C34 6.63 34 10.78 34 11.6L34 17.41C34 18.24 34 21.97 30.32 25.29C26.64 28.6 22.97 29.02 22.05 29.02L14.09 29.02C14.09 29.02 8.77 34 8.27 34C7.76 34 7.63 33.77 7.51 33.52C7.35 33.18 7.51 27.84 7.51 27.84C6.3 27.28 4.99 26.47 3.67 25.29C0 21.97 0 18.24 0 17.41L0 11.6C0 10.78 0 6.63 3.67 3.31ZM7.45 14.09C6.63 12.62 6.23 10.78 6.53 9.95C7.12 8.31 9.28 6.63 10.2 6.63C10.74 6.63 11.2 6.7 11.58 7.04C12.28 7.68 12.87 8.19 13.36 8.63C14.17 9.34 14.75 9.85 15.26 10.36C16.08 11.19 15.26 12.08 14.8 12.43C14.6 12.59 14.4 12.67 14.19 12.76C13.92 12.88 13.65 13 13.42 13.26C13.17 13.55 13.07 13.75 12.96 14.09C12.66 14.99 13.66 16.39 14.8 17.41C15.93 18.43 17.55 19.32 18.47 19.07C18.86 18.96 19.08 18.88 19.39 18.65C19.7 18.44 19.84 18.18 19.98 17.92C20.07 17.75 20.17 17.57 20.31 17.41C20.67 17 21.74 16.22 22.61 17L26.28 20.31C26.51 20.51 26.56 21.06 26.28 21.56C25.82 22.39 24.91 23.21 23.99 24.04C22.72 25.19 20.31 24.46 19.39 24.04C16.28 22.64 14.54 21.68 12.04 19.48C9.93 17.63 7.91 14.92 7.45 14.09ZM18.17 5.47C17.33 5.47 17.33 4.2 18.03 4.2L18.08 4.2C18.9 4.19 22.58 4.19 25.72 7.03C28.94 9.93 29.15 12.95 29.15 13.93C29.15 14.92 27.74 14.87 27.74 14.06C27.74 13.26 27.52 10.19 24.81 7.86C22.09 5.53 19.03 5.47 18.17 5.47ZM18.14 6.95C17.22 6.99 17.29 8.24 18.21 8.19C19.13 8.15 20.96 8.06 22.9 9.63C24.83 11.2 24.92 12.86 24.97 13.69C25.02 14.51 26.4 14.45 26.35 13.62C26.3 12.79 26 10.59 23.96 8.74C21.93 6.88 19.06 6.91 18.14 6.95ZM19.16 10.75C18.24 10.78 18.2 9.53 19.12 9.51C20.04 9.49 20.86 9.88 21.91 10.69C22.97 11.49 23.34 12.31 23.36 13.14C23.39 13.97 22.01 14 21.99 13.18C21.96 12.35 21.49 11.94 21.02 11.54C20.55 11.14 20.08 10.73 19.16 10.75Z" fill="#B585F3" fill-opacity="1.000000" fill-rule="evenodd"/>
</svg>
