<svg width="26.000000" height="26.000000" viewBox="0 0 26 26" fill="none" xmlns="http://www.w3.org/2000/svg" xmlns:xlink="http://www.w3.org/1999/xlink">
	<desc>
			Created with Pixso.
	</desc>
	<defs/>
	<path id="Exclude" d="M13 22.8C18.79 22.8 23.5 18.25 23.5 12.64C23.5 7.04 18.79 2.5 13 2.5C7.2 2.5 2.5 7.04 2.5 12.64C2.5 14.91 3.27 17.01 4.57 18.7L2.5 23.5L7.93 21.54C9.43 22.34 11.16 22.8 13 22.8ZM10.08 6.14C10.44 6.48 10.61 6.73 11.16 7.5C11.7 8.28 11.52 8.87 10.61 9.37C10.51 9.42 10.4 9.46 10.28 9.5C10 9.6 9.71 9.7 9.53 10.05C9.28 10.53 10.59 12.31 12.05 13.8C13.49 15.16 15.29 16.18 15.64 16.18C16.05 16.18 16.18 15.87 16.31 15.52C16.4 15.27 16.51 15.01 16.72 14.82C17.1 14.5 17.8 14.14 18.16 14.48C18.64 14.93 18.84 15.12 18.97 15.24C19.14 15.4 19.2 15.46 19.6 15.84C20.05 16.27 19.96 16.87 19.24 17.55C18.57 18.18 17.99 18.44 17.09 18.57C16.27 18.69 15.46 18.37 14.52 18.01C14.42 17.97 14.31 17.93 14.21 17.89C12.07 17.08 11 16.16 9.53 14.48C9.48 14.42 9.42 14.36 9.37 14.29C8.14 12.89 7.36 12.01 7.01 10.05C7 9.96 6.98 9.88 6.96 9.79C6.81 9.05 6.6 8.05 7.73 6.98C8.09 6.64 9.53 5.62 10.08 6.14Z" fill="#34D657" fill-opacity="1.000000" fill-rule="evenodd"/>
</svg>
