<svg width="60.795532" height="37.658691" viewBox="0 0 60.7955 37.6587" fill="none" xmlns="http://www.w3.org/2000/svg" xmlns:xlink="http://www.w3.org/1999/xlink">
	<desc>
			Created with Pixso.
	</desc>
	<defs/>
	<path id="20" d="M26.28 36.86L0.35 36.86L0.35 31.32L13.3 19.33C16.6 16.16 18.38 14.17 18.38 11.27C18.38 8.08 16 6.09 12.8 6.09C9.48 6.09 7.28 8.22 7.29 11.7L0 11.7C-0.02 4.56 5.22 0 12.85 0C20.65 0 25.8 4.45 25.8 10.76C25.8 14.9 23.79 18.31 16.32 25.13L11.01 30.33L11.01 30.57L26.28 30.57L26.28 36.86ZM60.79 18.71C60.78 30.7 55.26 37.65 46.11 37.65C36.95 37.64 31.4 30.66 31.43 18.71C31.44 6.79 36.99 0 46.11 0C55.22 0 60.81 6.82 60.79 18.71ZM39.26 18.71C39.25 27.09 41.94 31.28 46.11 31.28C50.27 31.28 52.97 27.09 52.94 18.71C52.94 10.46 50.24 6.31 46.11 6.31C41.96 6.31 39.27 10.46 39.26 18.71Z" fill="#CA2020" fill-opacity="1.000000" fill-rule="evenodd"/>
</svg>
