<svg width="45.000000" height="45.000000" viewBox="0 0 45 45" fill="none" xmlns="http://www.w3.org/2000/svg" xmlns:xlink="http://www.w3.org/1999/xlink">
	<desc>
			Created with Pixso.
	</desc>
	<defs/>
	<path id="Exclude" d="M22.5 43.5C34.92 43.5 45 33.76 45 21.75C45 9.73 34.92 0 22.5 0C10.07 0 0 9.73 0 21.75C0 26.61 1.65 31.1 4.44 34.72L0 45L11.63 40.8C14.85 42.52 18.56 43.5 22.5 43.5ZM16.24 7.8C17.01 8.53 17.39 9.07 18.55 10.73C19.72 12.38 19.32 13.65 17.39 14.72C17.17 14.84 16.93 14.92 16.68 15.01C16.08 15.22 15.46 15.45 15.07 16.18C14.53 17.22 17.34 21.03 20.47 24.22C23.55 27.14 27.41 29.33 28.17 29.33C29.05 29.33 29.31 28.66 29.6 27.91C29.8 27.37 30.02 26.8 30.48 26.41C31.29 25.72 32.8 24.95 33.57 25.68C34.59 26.65 35.01 27.04 35.3 27.31C35.66 27.65 35.8 27.78 36.65 28.6C37.6 29.5 37.42 30.79 35.88 32.25C34.45 33.6 33.19 34.17 31.26 34.44C29.52 34.69 27.77 34.02 25.76 33.24C25.54 33.16 25.32 33.07 25.09 32.98C20.51 31.24 18.23 29.28 15.07 25.68C14.95 25.54 14.84 25.41 14.72 25.28C12.09 22.28 10.42 20.38 9.68 16.18C9.65 16 9.61 15.82 9.57 15.62C9.24 14.04 8.79 11.9 11.22 9.6C11.99 8.87 15.07 6.7 16.24 7.8Z" fill="#30373D" fill-opacity="1.000000" fill-rule="evenodd"/>
</svg>
