<svg width="26.000000" height="26.000000" viewBox="0 0 26 26" fill="none" xmlns="http://www.w3.org/2000/svg" xmlns:xlink="http://www.w3.org/1999/xlink">
	<desc>
			Created with Pixso.
	</desc>
	<defs/>
	<path id="Vector 16" d="M11.28 20.8C10.93 21.16 10.59 21.16 10.25 21.16L10.59 15.81C10.59 15.81 20.21 7.32 20.21 6.9C20.21 6.49 19.53 6.9 19.53 6.9L7.84 14.39L2.68 12.96C2.68 12.96 2 12.64 2 12.25C2 11.86 2.68 11.54 2.68 11.54L22.28 3.7C22.28 3.7 23.21 3.24 23.65 3.7C23.81 3.86 24 4.05 24 4.41C24 4.41 20.9 21.52 20.21 22.23C19.87 22.58 19.53 22.58 18.84 22.23C18.28 21.94 13.68 18.31 13.68 18.31C13.68 18.31 11.62 20.45 11.28 20.8Z" fill="#36B7FF" fill-opacity="1.000000" fill-rule="evenodd"/>
</svg>
