<svg width="36.000000" height="34.000000" viewBox="0 0 36 34" fill="none" xmlns="http://www.w3.org/2000/svg" xmlns:xlink="http://www.w3.org/1999/xlink">
	<desc>
			Created with Pixso.
	</desc>
	<defs/>
	<path id="Vector 16" d="M15.18 30.97C14.62 31.6 14.06 31.6 13.5 31.6L14.06 22.04C14.06 22.04 29.81 6.84 29.81 6.1C29.81 5.35 28.68 6.1 28.68 6.1L9.56 19.49L1.12 16.94C1.12 16.94 0 16.37 0 15.66C0 14.96 1.11 14.39 1.12 14.39L33.18 0.36C33.18 0.36 34.71 -0.46 35.43 0.36C35.69 0.65 36 0.99 36 1.63C36 1.63 30.93 32.24 29.81 33.52C29.25 34.15 28.68 34.15 27.56 33.52C26.64 33 19.12 26.5 19.12 26.5C19.12 26.5 15.75 30.33 15.18 30.97Z" fill="#36B7FF" fill-opacity="1.000000" fill-rule="evenodd"/>
</svg>
